<svg width="529" height="794" viewBox="0 0 529 794" fill="none" xmlns="http://www.w3.org/2000/svg">
<path d="M211.95 1.16636C176.35 5.43303 137.55 18.7664 107.417 36.8997C77.2836 55.1664 45.1503 85.6997 18.8836 121.166C-6.18303 155.166 -6.31637 157.833 18.617 185.3C33.1503 201.3 96.0836 239.3 127.817 251.3C138.75 255.433 149.55 255.566 156.884 251.966C162.617 249.033 166.884 244.5 179.817 227.966C184.484 221.966 191.684 213.833 195.95 209.966C202.084 204.233 203.417 202.366 202.35 200.633C201.417 198.9 201.684 198.366 203.417 198.366C204.75 198.366 205.284 197.7 204.75 196.366C204.35 195.3 203.55 193.433 203.15 192.366C201.817 189.033 204.75 190.1 207.15 193.7C209.684 197.566 212.75 197.033 210.35 193.166C208.084 189.433 209.95 185.833 213.684 187.033C215.284 187.566 217.817 187.966 219.284 187.833C220.75 187.833 222.217 188.5 222.75 189.3C224.084 191.3 237.284 187.7 237.284 185.433C237.284 184.366 237.817 183.833 238.484 184.366C239.15 184.766 240.75 184.1 241.817 182.9C243.817 181.033 243.684 180.5 241.284 177.433C239.817 175.566 238.617 173.566 238.617 173.033C238.617 172.5 241.817 171.7 245.684 171.166C251.95 170.5 255.284 171.166 272.75 177.033C283.684 180.766 293.15 183.566 293.817 183.3C294.617 183.033 286.484 179.833 275.95 176.233C255.817 169.433 254.617 167.7 271.817 170.366C295.15 173.833 322.617 184.633 333.95 194.633C342.217 201.966 351.95 216.766 357.55 230.766C361.55 240.9 361.817 242.9 361.95 257.033C361.95 271.7 361.684 272.766 357.55 281.7C354.084 288.9 350.35 293.7 340.884 303.033C329.55 314.366 323.017 319.433 289.817 343.7C260.617 365.033 222.75 401.033 205.684 423.833C186.35 449.566 173.817 477.3 168.35 506.366C166.617 515.566 165.95 525.7 165.95 543.033C165.95 564.766 166.217 567.566 168.75 572.366C172.217 578.9 180.75 583.7 190.75 584.5C194.75 584.9 200.217 585.833 203.017 586.5C209.417 588.233 274.484 588.1 293.284 586.5C316.484 584.366 325.15 581.7 330.484 574.766C333.15 571.433 333.417 569.7 333.15 551.566L333.017 531.833L337.684 525.433C346.75 513.033 375.017 487.166 398.617 469.566C411.417 459.966 425.55 449.166 429.95 445.433C445.284 432.633 469.017 409.7 477.15 399.966C500.75 371.433 517.684 335.833 524.617 300.366C532.084 261.166 529.55 220.5 517.284 183.566C513.417 171.966 511.684 167.966 499.684 142.366C483.417 107.966 449.817 69.9664 416.617 48.2331C379.15 23.8331 313.417 1.69969 282.617 3.16636C275.95 3.43303 274.884 3.29969 277.95 2.36636C281.417 1.29969 281.017 1.16636 275.017 1.43303C271.284 1.56636 268.484 1.29969 268.75 0.766359C269.55 -0.433641 223.017 -0.166974 211.95 1.16636ZM260.75 7.69969C269.017 9.16636 278.484 11.6997 283.95 13.9664C285.017 14.3664 286.217 14.8997 286.617 15.033C290.217 16.0997 294.617 19.1664 294.617 20.4997C294.617 23.033 291.017 23.833 278.75 23.6997C262.217 23.433 244.35 25.033 221.95 28.3664C219.017 28.8997 207.95 31.033 197.284 33.2997C186.617 35.433 172.884 37.833 166.617 38.3664C160.35 39.033 151.15 40.0997 145.95 40.8997C133.15 42.8997 127.817 42.7664 128.75 40.633C130.484 36.3664 153.817 23.6997 170.617 17.9664C182.75 13.833 205.55 8.23303 211.817 7.83303C214.35 7.69969 216.617 7.43303 216.884 7.16636C218.084 5.96636 252.75 6.36636 260.75 7.69969ZM178.617 80.4997C168.217 86.6331 159.417 91.6997 159.15 91.6997C158.75 91.6997 153.817 94.7664 148.217 98.6331C135.817 106.9 88.7503 153.7 89.817 156.5C90.217 157.566 89.817 158.366 88.8836 158.366C87.9503 158.366 85.817 160.633 83.9503 163.3C79.2836 170.1 77.2836 171.833 75.5503 170.766C74.617 170.233 74.7503 170.9 75.817 172.1C77.417 174.233 77.417 174.366 75.1503 173.433C72.8836 172.633 72.8836 172.766 74.4836 174.766C75.5503 176.1 75.9503 177.566 75.417 177.966C73.9503 179.433 69.9503 176.233 70.0836 173.966C70.3503 171.7 66.0836 169.966 57.017 168.366C52.7503 167.7 49.2836 164.766 49.2836 161.833C49.2836 161.433 51.417 160.1 54.217 159.033C57.1503 157.833 66.8836 149.033 79.1503 136.633C90.217 125.433 103.817 112.633 109.284 108.366C114.75 104.1 119.55 100.1 119.95 99.5664C120.617 98.6331 128.217 93.9664 140.884 86.4997C153.817 78.8997 173.55 71.2997 184.617 69.6997C190.484 68.7664 195.817 68.3664 196.35 68.7664C197.017 69.0331 189.017 74.3664 178.617 80.4997ZM486.884 171.7C492.084 183.3 492.884 185.3 494.084 188.366C495.684 192.766 495.817 193.166 499.284 206.366C505.017 228.633 502.75 261.966 496.35 248.1C495.417 246.1 494.617 243.966 494.617 243.3C494.617 242.633 493.817 241.3 492.75 240.366C491.284 238.9 490.884 241.033 490.217 254.1C489.417 269.3 486.617 282.766 483.817 284.366C483.017 284.9 482.617 273.833 482.75 251.433C482.884 212.1 482.217 208.233 468.217 172.766C467.017 169.966 467.15 169.166 468.75 168.5C469.95 168.1 471.817 168.366 473.017 169.166C475.017 170.366 475.017 170.5 472.884 169.833C471.284 169.3 470.617 169.566 470.884 170.633C471.55 172.633 475.284 173.566 478.084 172.5C479.684 171.833 479.817 171.166 478.617 168.9C477.684 167.433 477.417 164.633 477.95 162.766C478.617 159.833 479.017 159.7 480.884 161.3C482.084 162.233 484.75 166.9 486.884 171.7ZM201.284 181.033C201.284 181.7 200.617 182.366 199.817 182.366C199.15 182.366 198.884 181.7 199.284 181.033C199.684 180.233 200.35 179.7 200.75 179.7C201.017 179.7 201.284 180.233 201.284 181.033ZM231.95 182.5C231.95 183.166 231.417 183.7 230.617 183.7C229.95 183.7 229.284 182.766 229.284 181.566C229.284 180.5 229.95 179.966 230.617 180.366C231.417 180.766 231.95 181.7 231.95 182.5ZM444.884 227.3C448.484 236.633 448.084 261.3 444.084 272.366C442.617 276.766 441.55 279.033 441.817 277.3C442.084 275.7 441.95 274.366 441.417 274.366C440.884 274.366 440.35 262.366 440.084 247.7C439.95 230.633 440.217 221.033 441.017 221.033C441.817 221.033 443.55 223.833 444.884 227.3ZM426.35 268.633C427.55 269.833 429.55 273.033 430.884 275.966C432.084 278.766 433.817 281.033 434.484 281.033C435.417 281.033 435.417 282.1 434.617 284.5C433.017 288.766 432.884 290.766 434.484 289.833C435.15 289.3 436.084 289.833 436.35 290.633C436.884 291.966 437.417 291.966 438.484 290.366C440.35 287.566 439.417 299.833 436.884 309.166C435.15 315.966 428.084 329.833 423.684 335.166C417.284 342.9 394.084 364.9 383.284 373.7C378.884 377.3 375.017 380.5 374.617 381.033C373.284 382.633 356.084 394.366 355.017 394.366C354.484 394.366 353.15 395.566 352.217 397.033C351.284 398.5 349.684 399.7 348.75 399.7C347.684 399.7 346.617 400.233 346.35 400.766C346.217 401.3 339.684 406.9 331.95 413.033C307.284 432.766 287.15 451.3 273.55 466.766C270.75 469.966 268.35 471.566 267.15 471.166C266.084 470.766 265.417 470.9 265.817 471.566C266.217 472.233 265.684 473.433 264.617 474.366C263.284 475.566 262.617 475.566 262.617 474.5C262.617 473.7 261.284 473.3 259.684 473.566C257.95 473.966 256.35 474.233 255.95 474.233C255.55 474.366 256.217 475.033 257.284 475.7C259.017 476.766 258.884 477.166 256.484 477.833C254.884 478.233 252.884 479.833 251.95 481.433C249.817 485.166 231.284 502.366 229.417 502.366C227.684 502.366 232.484 485.566 237.284 474.633C241.55 465.3 243.817 462.9 261.017 449.433C267.017 444.633 271.95 440.366 271.95 439.7C271.95 439.033 273.017 438.233 274.35 437.833C275.55 437.3 279.017 434.9 281.95 432.366C284.884 429.833 287.95 427.3 288.617 426.633C289.417 426.1 293.15 422.9 297.15 419.3C309.284 408.5 343.684 383.7 346.484 383.7C347.55 383.7 353.284 379.166 358.884 373.966C360.217 372.633 361.817 371.833 362.35 372.233C363.017 372.633 366.884 369.3 371.15 364.9C375.417 360.633 379.284 357.033 379.817 357.033C381.684 357.033 402.617 334.233 404.617 329.966C405.684 327.7 407.15 324.766 407.817 323.7C411.55 317.7 413.284 311.166 413.284 302.633C413.284 295.7 414.084 291.566 416.484 286.233C418.35 282.233 420.484 276.233 421.417 272.633C422.217 269.166 423.15 266.366 423.55 266.366C423.817 266.366 425.15 267.3 426.35 268.633ZM269.284 474.9C269.284 475.166 268.35 476.1 267.284 477.033C265.55 478.5 265.417 478.366 266.084 476.5C266.75 474.633 269.284 473.433 269.284 474.9ZM262.884 482.233C262.217 482.633 259.417 489.566 256.617 497.7C248.35 521.833 243.95 528.1 243.95 515.566C243.95 503.833 259.817 473.7 263.15 479.433C263.817 480.5 263.684 481.7 262.884 482.233Z" fill="black"/>
<path d="M240.35 599.833C229.95 601.166 215.017 606.1 204.617 611.433C191.15 618.366 174.35 635.566 167.017 649.7C152.75 677.433 151.15 706.366 162.484 734.233C167.95 747.833 173.417 755.566 185.15 766.633C197.55 778.366 206.217 783.7 222.084 789.166C232.75 792.9 235.55 793.433 249.284 793.3C260.617 793.3 267.417 792.633 275.017 790.5C302.084 783.3 324.617 764.5 336.75 739.033C343.95 723.966 345.95 714.5 345.95 696.366C345.817 677.433 343.684 668.1 335.684 651.7C327.95 636.1 310.75 618.633 295.15 610.633C277.417 601.566 257.15 597.566 240.35 599.833ZM310.484 678.766C315.284 688.5 313.15 694.1 305.55 692.633C301.284 691.833 299.417 692.633 298.217 695.966C297.417 698.233 292.084 699.433 291.817 697.3C290.484 686.233 290.75 685.3 295.95 683.166C298.884 681.966 302.084 679.433 303.417 677.033C304.75 674.9 306.217 673.033 306.75 673.033C307.284 673.033 309.017 675.566 310.484 678.766ZM257.95 681.033C259.017 681.966 259.95 684.366 259.95 686.5C259.95 689.566 259.15 690.5 256.35 691.3C254.217 691.833 251.684 692.1 250.484 691.966C248.75 691.7 248.35 692.633 248.484 696.633C248.617 700.9 248.084 701.833 245.817 702.1C241.817 702.633 240.884 699.166 244.084 695.166C246.617 691.966 246.617 691.566 244.484 691.833C243.95 691.833 243.15 691.3 242.617 690.366C241.95 689.3 240.084 689.433 235.817 690.9C227.55 693.833 222.617 693.7 222.617 690.5C222.617 684.1 224.35 679.833 227.15 679.433C234.35 678.366 256.084 679.566 257.95 681.033Z" fill="black"/>
</svg>
